<?xml version="1.0" encoding="UTF-8"?><svg version="1.1" xmlns="http://www.w3.org/2000/svg" viewBox="0 0 1600 1200" width="1600" height="1200" x="0px" y="0px">
              
              <!-- ITEM 0 -->
<g>
    <defs>
        
        <clipPath id="clip-path-id-viewbox-item-0">
            <rect x="0.0" y="0.0" width="800.0" height="600.0"/>
        </clipPath>
    </defs>
    <g transform="translate(277.0 142.0) rotate(0.0 534.0 400.5) scale(1.335 1.335)">
        <g clip-path="url(#clip-path-id-viewbox-item-0)" transform="translate(-0.0 -0.0)">

<linearGradient id="SVGID_1_-i0" gradientUnits="userSpaceOnUse" x1="861.8562" y1="-2476.7854" x2="3464.1475" y2="-2476.7854" gradientTransform="matrix(0.1 0 0 -0.1 0 18)">
	<stop offset="0" style="stop-color:#E8F1FE"/>
	<stop offset="1" style="stop-color:#C1D7F8"/>
</linearGradient>
<ellipse style="fill:url(#SVGID_1_-i0);" cx="216.3" cy="265.679" rx="130.115" ry="132.422"/>
<g style="opacity:0.69;">
	<g>
		<polygon style="fill:#b9d5eb;" points="687.917,146.204 671.509,129.924 687.917,113.515 690.609,116.207 677.021,129.924     690.609,143.512   "/>
	</g>
	<g>
		<polygon style="fill:#b9d5eb;" points="675.739,146.204 659.459,129.924 675.739,113.515 678.559,116.207 664.843,129.924     678.559,143.512   "/>
	</g>
</g>
<g style="opacity:0.69;">
	<g>
		<polygon style="fill:#7cb3ea;" points="15.552,285.805 12.86,282.984 26.448,269.396 12.86,255.68 15.552,252.988 31.832,269.396       "/>
	</g>
	<g>
		<polygon style="fill:#7cb3ea;" points="27.73,285.805 24.91,282.984 38.627,269.396 24.91,255.68 27.73,252.988 44.011,269.396       "/>
	</g>
</g>
<g>
	<path style="opacity:0.45;fill:#aacaf0;enable-background:new    ;" d="M713.684,499.628l12.435,6.41   c1.282,0.385,2.564,0.641,3.846,0.897l-19.357-9.999C711.633,497.962,712.658,498.859,713.684,499.628z"/>
	<path style="opacity:0.45;fill:#aacaf0;enable-background:new    ;" d="M707.018,493.091l28.202,14.486c0.641,0,1.41,0,2.051,0   l-31.407-16.152C706.249,491.937,706.633,492.45,707.018,493.091z"/>
	<path style="opacity:0.45;fill:#aacaf0;enable-background:new    ;" d="M704.326,488.476l36.663,18.844   c0.513-0.128,1.026-0.128,1.666-0.256l-38.842-19.998C703.941,487.578,704.07,487.963,704.326,488.476z"/>
	<path style="opacity:0.45;fill:#aacaf0;enable-background:new    ;" d="M703.429,484.758l42.175,21.664   c0.513-0.128,0.897-0.256,1.41-0.385l-43.585-22.434C703.3,483.989,703.3,484.374,703.429,484.758z"/>
	<path style="opacity:0.45;fill:#aacaf0;enable-background:new    ;" d="M703.557,481.682l46.021,23.587   c0.385-0.128,0.769-0.256,1.154-0.513l-46.918-24.1C703.557,480.912,703.557,481.297,703.557,481.682z"/>
	<path style="opacity:0.45;fill:#aacaf0;enable-background:new    ;" d="M704.198,478.733l48.713,25.126   c0.385-0.128,0.641-0.385,1.026-0.513l-49.482-25.51C704.326,478.092,704.198,478.477,704.198,478.733z"/>
	<path style="opacity:0.45;fill:#aacaf0;enable-background:new    ;" d="M705.095,476.041l50.764,26.151   c0.256-0.128,0.641-0.385,0.897-0.641l-51.405-26.407C705.352,475.528,705.223,475.785,705.095,476.041z"/>
	<path style="opacity:0.45;fill:#aacaf0;enable-background:new    ;" d="M706.249,473.477l52.302,26.92   c0.256-0.256,0.641-0.385,0.897-0.641l-52.687-27.177C706.633,472.836,706.505,473.221,706.249,473.477z"/>
	<path style="opacity:0.45;fill:#aacaf0;enable-background:new    ;" d="M708.3,470.913c-0.128,0.128-0.128,0.128-0.256,0.256   l53.071,27.305c0.256-0.256,0.513-0.385,0.769-0.641l-52.943-27.177C708.685,470.657,708.428,470.785,708.3,470.913z"/>
	<path style="opacity:0.45;fill:#aacaf0;enable-background:new    ;" d="M713.043,470.144c-0.256,0-0.385,0-0.641,0l50.892,26.151   c0.256-0.256,0.385-0.513,0.641-0.769l-49.61-25.51C713.812,470.144,713.428,470.144,713.043,470.144z"/>
	<path style="opacity:0.45;fill:#aacaf0;enable-background:new    ;" d="M717.402,469.632l47.687,24.485   c0.256-0.256,0.385-0.513,0.513-0.769l-47.046-24.1C718.299,469.375,717.914,469.503,717.402,469.632z"/>
	<path style="opacity:0.45;fill:#aacaf0;enable-background:new    ;" d="M720.991,468.221l45.764,23.587   c0.128-0.256,0.385-0.513,0.513-0.769l-45.252-23.203C721.76,467.837,721.375,468.093,720.991,468.221z"/>
	<path style="opacity:0.45;fill:#aacaf0;enable-background:new    ;" d="M723.939,466.555l44.354,22.818   c0.128-0.256,0.256-0.513,0.385-0.897l-43.842-22.562C724.452,466.042,724.196,466.299,723.939,466.555z"/>
	<path style="opacity:0.45;fill:#aacaf0;enable-background:new    ;" d="M726.247,464.504l43.072,22.177   c0.128-0.256,0.256-0.641,0.385-0.897l-42.816-22.049C726.76,464.119,726.503,464.247,726.247,464.504z"/>
	<path style="opacity:0.45;fill:#aacaf0;enable-background:new    ;" d="M728.17,462.325l42.047,21.664   c0.128-0.256,0.128-0.641,0.256-0.897l-41.79-21.536C728.554,461.812,728.426,462.068,728.17,462.325z"/>
	<path style="opacity:0.45;fill:#aacaf0;enable-background:new    ;" d="M729.708,459.889l41.15,21.152   c0-0.385,0.128-0.641,0.128-1.026l-40.765-21.023C730.092,459.376,729.964,459.633,729.708,459.889z"/>
	<path style="opacity:0.45;fill:#aacaf0;enable-background:new    ;" d="M771.114,476.938l-39.868-20.511   c-0.128,0.256-0.256,0.641-0.256,0.897l40.124,20.639C771.114,477.579,771.114,477.323,771.114,476.938z"/>
	<path style="opacity:0.45;fill:#aacaf0;enable-background:new    ;" d="M770.729,473.477l-38.842-19.998   c0,0.385-0.128,0.641-0.128,1.026l39.227,20.126C770.857,474.246,770.857,473.862,770.729,473.477z"/>
	<path style="opacity:0.45;fill:#aacaf0;enable-background:new    ;" d="M769.704,469.76l-37.047-19.101   c-0.128,0.256-0.256,0.513-0.385,0.897l37.817,19.485C770.088,470.657,769.96,470.272,769.704,469.76z"/>
	<path style="opacity:0.45;fill:#aacaf0;enable-background:new    ;" d="M767.781,465.786c-0.128-0.128-0.128-0.256-0.256-0.256   l-32.817-16.921c-0.385,0.128-0.641,0.385-0.897,0.641l34.612,17.819C768.294,466.683,768.037,466.17,767.781,465.786z"/>
	<path style="opacity:0.45;fill:#aacaf0;enable-background:new    ;" d="M761.756,459.248l-21.152-10.896   c-0.897-0.256-1.923-0.385-2.82-0.385l26.792,13.845C763.679,460.914,762.781,460.145,761.756,459.248z"/>
</g>
<linearGradient id="SVGID_2_-i0" gradientUnits="userSpaceOnUse" x1="3785.9087" y1="-3135.6907" x2="7734.5659" y2="-3135.6907" gradientTransform="matrix(0.1 0 0 -0.1 0 18)">
	<stop offset="0" style="stop-color:#d3e4fd"/>
	<stop offset="1" style="stop-color:#aacaf0"/>
</linearGradient>
<path style="opacity:0.7;fill:url(#SVGID_2_-i0);enable-background:new    ;" d="M728.811,161.715  c-2.307-2.948-4.615-5.769-6.922-8.589L378.591,416.176c2.051,3.077,4.23,6.025,6.538,8.973  c12.691,16.537,27.177,30.638,43.072,42.431l4.358-5.256l168.572-40.252c-0.128,2.179-0.256,4.358-0.385,6.538l-170.239,40.637  c1.282,0.897,2.692,1.923,3.974,2.82l165.88-39.611c-0.128,2.179-0.513,3.846-0.769,6.153L441.02,476.426  c0.769,0.513,1.666,1.026,2.564,1.538l155.625-37.176c-0.513,2.307-1.026,5.128-1.667,7.435l-145.498,34.74  c1.41,0.769,2.82,1.538,4.102,2.179l140.626-33.586c-0.641,1.795-1.282,4.102-1.923,6.41l-130.627,31.151  c1.538,0.769,3.077,1.41,4.615,2.179l124.602-29.74c-0.769,2.307-1.538,4.615-2.564,6.538l-112.937,26.92  c2.051,0.769,4.102,1.538,6.153,2.307l104.989-25.126c-1.282,2.436-2.564,4.871-3.974,7.435l-89.606,21.408  c1.41,0.385,2.692,0.769,4.102,1.154l84.094-19.998c-1.41,3.077-3.205,5.64-4.871,8.204l-64.48,15.383  c2.564,0.513,5.128,1.026,7.692,1.41l53.456-12.691c-0.641,1.282-1.41,1.923-2.179,2.82c-1.282,1.538-2.436,3.077-3.846,4.487  l-31.151,7.435c4.23,0.385,8.461,0.641,12.691,0.769l14.101-3.333c-1.154,1.154-2.307,2.307-3.461,3.333  c44.483-0.897,89.093-15.511,127.038-44.611C783.548,392.588,801.495,256.705,728.811,161.715z M549.983,317.724  c0.128,0.128,0.385,0.385,0.513,0.385l-1.026,0.256L549.983,317.724z M545.753,322.98l8.332-2.051  c0.385,0.513,0.641,0.385,0.897,0.641c1.795,1.41,3.461,3.077,5.128,4.359l-21.023,4.999L545.753,322.98z M535.497,335.671  l27.818-6.666c1.666,1.795,3.077,3.077,4.615,4.743l-38.329,9.102L535.497,335.671z M527.421,345.67l42.175-9.999  c1.538,1.795,3.077,3.589,4.615,5.384l-53.328,12.691L527.421,345.67z M517.166,358.361l59.353-14.229  c1.282,1.795,2.307,3.205,3.589,5.128l-68.839,16.409L517.166,358.361z M507.552,370.283l74.608-17.819  c1.026,1.41,2.051,3.333,2.948,4.615l-83.453,19.87L507.552,370.283z M498.707,380.923l87.811-21.023  c1.026,1.923,2.179,4.358,3.205,6.281l-98.451,23.459L498.707,380.923z M489.092,392.46l101.528-24.228  c1.026,2.436,1.795,4.358,2.564,6.41l-110.629,26.279L489.092,392.46z M478.837,405.023l115.372-27.561  c0.641,2.051,1.282,3.974,1.795,5.512L472.94,412.33L478.837,405.023z M470.761,415.022l125.884-29.997  c0.641,2.564,1.154,4.615,1.795,7.051l-134.858,32.176L470.761,415.022z M460.377,427.713l138.447-33.073  c0.385,2.051,0.769,4.102,1.026,5.64l-145.241,34.612L460.377,427.713z M450.891,439.763l149.343-35.637  c0.256,2.051,0.385,3.718,0.513,5.769L444.994,447.07L450.891,439.763z M434.739,459.633l7.307-9.23l158.958-37.945  c0.128,2.692,0.128,4.743,0.256,7.435L434.739,459.633z"/>
<path style="fill:#EBF2FE;" d="M471.658,543.342l65.25-15.639c4.871-2.82,9.743-5.512,14.229-9.358l-96.528,23.075  C460.377,542.829,465.889,543.085,471.658,543.342z"/>
<path style="fill:#EBF2FE;" d="M550.88,509.884L436.79,537.06c3.718,1.282,7.435,2.564,11.281,3.205l108.322-25.895  c1.795-1.41,3.461-2.948,5.128-4.615C558.059,510.012,554.47,510.012,550.88,509.884z"/>
<path style="fill:#f0f7fe;" d="M564.982,506.551l-14.101,3.333c3.589,0.128,7.051,0.128,10.64,0  C562.674,508.858,563.828,507.704,564.982,506.551z"/>
<path style="fill:#EBF2FE;" d="M394.23,509.115l-1.666,2.051c1.282,1.154,2.564,2.564,3.846,3.333l81.402-19.485  c-3.077-1.154-6.025-2.436-8.973-3.718L394.23,509.115z"/>
<path style="fill:#f0f7fe;" d="M593.44,461.555l-124.602,29.741c2.948,1.282,6.025,2.564,8.973,3.718l112.937-26.92  C591.902,466.299,592.671,463.863,593.44,461.555z"/>
<path style="fill:#EBF2FE;" d="M414.228,485.015l-7.435,8.717l45.38-10.768c-2.82-1.538-5.64-3.205-8.461-4.999L414.228,485.015z"/>
<path style="fill:#f0f7fe;" d="M599.209,440.917l-155.625,37.176c2.82,1.666,5.64,3.333,8.461,4.999l145.498-34.74  C598.183,445.916,598.696,443.096,599.209,440.917z"/>
<path style="fill:#EBF2FE;" d="M403.845,497.706l-5.897,7.307l66.275-15.768c-2.692-1.282-5.384-2.564-7.948-3.974L403.845,497.706z  "/>
<path style="fill:#f0f7fe;" d="M596.773,451.685l-140.626,33.586c2.692,1.41,5.256,2.692,7.948,3.974l130.884-31.279  C595.491,455.659,596.132,453.479,596.773,451.685z"/>
<path style="fill:#EBF2FE;" d="M399.999,517.447c2.179,1.666,4.487,3.205,6.794,4.871l88.709-21.152  c-3.846-1.154-7.691-2.307-11.409-3.718L399.999,517.447z"/>
<path style="fill:#f0f7fe;" d="M589.082,472.324l-104.989,25.126c3.846,1.41,7.563,2.564,11.409,3.718l89.606-21.408  C586.518,477.195,587.8,474.759,589.082,472.324z"/>
<path style="fill:#f0f7fe;" d="M554.983,321.698c-0.256-0.256-0.513-0.256-0.897-0.641l-8.332,2.051l-6.666,8.076l21.023-4.999  C558.572,324.775,556.777,323.108,554.983,321.698z"/>
<path style="fill:#f0f7fe;" d="M596.645,385.025l-125.884,29.997l-7.307,9.23l134.858-32.176  C597.799,389.64,597.286,387.589,596.645,385.025z"/>
<path style="fill:#EBF2FE;" d="M422.048,531.035c2.82,1.41,5.769,2.948,8.717,3.846l107.425-25.638  c-5.384-0.513-10.896-1.154-16.28-2.051L422.048,531.035z"/>
<path style="fill:#f0f7fe;" d="M573.186,497.193c0.769-0.897,1.538-1.666,2.179-2.82l-53.456,12.691  c5.384,0.897,10.768,1.538,16.28,2.051l31.151-7.435C570.622,500.398,571.904,498.731,573.186,497.193z"/>
<path style="fill:#f0f7fe;" d="M549.983,317.724l-0.513,0.641l1.026-0.256C550.368,318.109,550.111,317.853,549.983,317.724z"/>
<path style="fill:#EBF2FE;" d="M409.229,523.857c2.692,2.051,5.384,3.589,8.076,5.128l96.913-23.203  c-4.871-1.026-9.871-2.179-14.742-3.461L409.229,523.857z"/>
<path style="fill:#f0f7fe;" d="M583.569,482.194l-84.094,19.998c4.871,1.282,9.743,2.436,14.742,3.461l64.48-15.383  C580.493,487.835,582.159,485.271,583.569,482.194z"/>
<path style="fill:#EBF2FE;" d="M422.304,475.016l-5.897,7.307l24.613-5.897c-2.179-1.41-4.358-2.82-6.538-4.358L422.304,475.016z"/>
<path style="fill:#f0f7fe;" d="M600.363,432.456l-165.88,39.611c2.179,1.538,4.359,2.948,6.538,4.358l158.573-37.817  C599.85,436.43,600.234,434.635,600.363,432.456z"/>
<path style="fill:#f0f7fe;" d="M582.159,352.464l-74.608,17.819l-6.025,6.794l83.453-19.87  C584.21,355.669,583.185,353.874,582.159,352.464z"/>
<path style="fill:#f0f7fe;" d="M569.597,335.543l-42.175,9.999l-6.666,8.076l53.328-12.691  C572.673,339.132,571.135,337.338,569.597,335.543z"/>
<path style="fill:#f0f7fe;" d="M576.519,344.132l-59.353,14.229l-5.897,7.307l68.839-16.409  C578.955,347.337,577.801,345.927,576.519,344.132z"/>
<path style="fill:#f0f7fe;" d="M586.518,360.028l-87.811,21.023l-7.435,8.717l98.451-23.459  C588.825,364.258,587.672,361.951,586.518,360.028z"/>
<path style="fill:#f0f7fe;" d="M563.315,329.005l-27.818,6.666l-5.897,7.307l38.329-9.102  C566.392,332.082,564.982,330.8,563.315,329.005z"/>
<path style="fill:#EBF2FE;" d="M425.894,470.401l4.615-1.154c-0.769-0.513-1.538-1.154-2.307-1.666L425.894,470.401z"/>
<path style="fill:#f0f7fe;" d="M601.132,422.072L432.56,462.325l-4.358,5.256c0.769,0.513,1.538,1.154,2.307,1.666l170.239-40.637  C600.875,426.431,601.003,424.252,601.132,422.072z"/>
<path style="fill:#EBF2FE;" d="M520.755,535.394l-31.279,7.435C500.117,541.419,510.757,539.368,520.755,535.394z"/>
<path style="fill:#f0f7fe;" d="M600.363,403.997l-149.343,35.637l-5.897,7.307l155.753-37.176  C600.619,407.715,600.619,406.177,600.363,403.997z"/>
<path style="fill:#f0f7fe;" d="M442.046,450.403l-7.307,9.23l166.393-39.739c0-2.692,0-4.871-0.256-7.435L442.046,450.403z"/>
<path style="fill:#f0f7fe;" d="M594.209,377.59l-115.373,27.561l-5.897,7.307l123.064-29.356  C595.491,381.564,594.978,379.513,594.209,377.59z"/>
<path style="fill:#f0f7fe;" d="M598.824,394.768l-138.447,33.073l-5.897,7.307l145.241-34.612  C599.593,398.87,599.209,396.819,598.824,394.768z"/>
<path style="fill:#f0f7fe;" d="M590.62,368.232L489.092,392.46l-6.538,8.589l110.501-26.408  C592.415,372.59,591.645,370.668,590.62,368.232z"/>
<path style="fill:#EEEEEE;" d="M663.305,229.785h3.846v8.973h-3.846V229.785z M663.305,306.7h3.846v10.255h-3.846V306.7z   M656.895,209.274h5.128v10.255h-5.128V209.274z M656.895,286.189h5.128v10.255h-5.128V286.189z M650.485,190.045h5.128v8.973  h-5.128V190.045z M650.485,266.96h5.128v10.255h-5.128V266.96z M650.485,346.439h5.128v10.255h-5.128V346.439z M641.512,169.535  h5.128v10.255h-5.128V169.535z M641.512,249.014h5.128v10.255h-5.128V249.014z M641.512,325.929h5.128v10.255h-5.128V325.929z   M635.102,229.785h3.846v8.973h-3.846V229.785z M635.102,306.7h3.846v10.255h-3.846V306.7z M628.693,209.274h3.846v10.255h-3.846  V209.274z M628.693,286.189h3.846v10.255h-3.846V286.189z M628.693,365.668h3.846v8.973h-3.846V365.668z M621.001,190.045h3.846  v8.973h-3.846V190.045z M621.001,266.96h3.846v10.255h-3.846V266.96z M621.001,346.439h3.846v10.255h-3.846V346.439z   M612.028,169.535h5.128v10.255h-5.128V169.535z M612.028,249.014h5.128v10.255h-5.128V249.014z M612.028,325.929h5.128v10.255  h-5.128V325.929z M612.028,405.407h5.128v8.973h-5.128V405.407z M605.618,151.588h5.128v7.692h-5.128V151.588z M605.618,229.785  h5.128v8.973h-5.128V229.785z M605.618,306.7h5.128v10.255h-5.128V306.7z M605.618,386.179h5.128v8.973h-5.128V386.179z   M599.209,131.077h3.846v8.973h-3.846V131.077z M599.209,209.274h3.846v10.255h-3.846V209.274z M599.209,286.189h3.846v10.255  h-3.846V286.189z M599.209,365.668h3.846v8.973h-3.846V365.668z M591.517,111.849h5.128v8.973h-5.128V111.849z M591.517,190.045  h5.128v8.973h-5.128V190.045z M591.517,266.96h5.128v10.255h-5.128V266.96z M591.517,346.439h5.128v10.255h-5.128V346.439z   M591.517,425.918h5.128v8.973h-5.128V425.918z M583.826,169.535h5.128v10.255h-5.128V169.535z M583.826,249.014h5.128v10.255  h-5.128V249.014z M583.826,325.929h5.128v10.255h-5.128V325.929z M583.826,405.407h5.128v8.973h-5.128V405.407z M577.416,151.588  h3.846v7.692h-3.846V151.588z M577.416,229.785h3.846v8.973h-3.846V229.785z M577.416,306.7h3.846v10.255h-3.846V306.7z   M577.416,386.179h3.846v8.973h-3.846V386.179z M569.725,131.077h5.128v8.973h-5.128V131.077z M569.725,209.274h5.128v10.255h-5.128  V209.274z M569.725,286.189h5.128v10.255h-5.128V286.189z M569.725,365.668h5.128v8.973h-5.128V365.668z M563.315,111.849h5.128  v8.973h-5.128V111.849z M563.315,190.045h5.128v8.973h-5.128V190.045z M563.315,266.96h5.128v10.255h-5.128V266.96z   M563.315,346.439h5.128v10.255h-5.128V346.439z M563.315,425.918h5.128v8.973h-5.128V425.918z M554.342,91.338h5.128v8.973h-5.128  V91.338z M554.342,169.535h5.128v10.255h-5.128V169.535z M554.342,249.014h5.128v10.255h-5.128V249.014z M554.342,325.929h5.128  v10.255h-5.128V325.929z M554.342,405.407h5.128v8.973h-5.128V405.407z M547.932,151.588h3.846v7.692h-3.846V151.588z   M547.932,229.785h3.846v8.973h-3.846V229.785z M547.932,306.7h3.846v10.255h-3.846V306.7z M547.932,386.179h3.846v8.973h-3.846  V386.179z M541.523,131.077h3.846v8.973h-3.846V131.077z M541.523,209.274h3.846v10.255h-3.846V209.274z M541.523,286.189h3.846  v10.255h-3.846V286.189z M541.523,365.668h3.846v8.973h-3.846V365.668z M541.523,445.147h3.846v8.973h-3.846V445.147z   M533.831,111.849h5.128v8.973h-5.128V111.849z M533.831,190.045h5.128v8.973h-5.128V190.045z M533.831,266.96h5.128v10.255h-5.128  V266.96z M533.831,346.439h5.128v10.255h-5.128V346.439z M533.831,425.918h5.128v8.973h-5.128V425.918z M526.14,91.338h3.846v8.973  h-3.846V91.338z M526.14,169.535h3.846v10.255h-3.846V169.535z M526.14,249.014h3.846v10.255h-3.846V249.014z M526.14,325.929h3.846  v10.255h-3.846V325.929z M526.14,405.407h3.846v8.973h-3.846V405.407z M518.448,72.109h5.128v8.973h-5.128V72.109z M518.448,151.588  h5.128v7.692h-5.128V151.588z M518.448,229.785h5.128v8.973h-5.128V229.785z M518.448,306.7h5.128v10.255h-5.128V306.7z   M518.448,386.179h5.128v8.973h-5.128V386.179z M518.448,465.658h5.128v8.973h-5.128V465.658z M512.038,131.077h5.128v8.973h-5.128  V131.077z M512.038,209.274h5.128v10.255h-5.128V209.274z M512.038,286.189h5.128v10.255h-5.128V286.189z M512.038,365.668h5.128  v8.973h-5.128V365.668z M512.038,445.147h5.128v8.973h-5.128V445.147z M505.629,111.849h3.846v8.973h-3.846V111.849z   M505.629,190.045h3.846v8.973h-3.846V190.045z M505.629,266.96h3.846v10.255h-3.846V266.96z M505.629,346.439h3.846v10.255h-3.846  V346.439z M505.629,425.918h3.846v8.973h-3.846V425.918z M496.655,91.338h5.128v8.973h-5.128V91.338z M496.655,169.535h5.128v10.255  h-5.128V169.535z M496.655,249.014h5.128v10.255h-5.128V249.014z M496.655,325.929h5.128v10.255h-5.128V325.929z M496.655,405.407  h5.128v8.973h-5.128V405.407z M488.964,72.109h6.41v8.973h-6.41V72.109z M488.964,151.588h6.41v7.692h-6.41V151.588z   M488.964,229.785h6.41v8.973h-6.41V229.785z M488.964,306.7h6.41v10.255h-6.41V306.7z M488.964,386.179h6.41v8.973h-6.41V386.179z   M488.964,465.658h6.41v8.973h-6.41V465.658z M482.554,131.077h5.128v8.973h-5.128V131.077z M482.554,209.274h5.128v10.255h-5.128  V209.274z M482.554,286.189h5.128v10.255h-5.128V286.189z M482.554,365.668h5.128v8.973h-5.128V365.668z M482.554,445.147h5.128  v8.973h-5.128V445.147z M476.145,111.849h5.128v8.973h-5.128V111.849z M476.145,190.045h5.128v8.973h-5.128V190.045z   M476.145,266.96h5.128v10.255h-5.128V266.96z M476.145,346.439h5.128v10.255h-5.128V346.439z M476.145,425.918h5.128v8.973h-5.128  V425.918z M468.453,91.338h3.846v8.973h-3.846V91.338z M468.453,169.535h3.846v10.255h-3.846V169.535z M468.453,249.014h3.846  v10.255h-3.846V249.014z M468.453,325.929h3.846v10.255h-3.846V325.929z M468.453,405.407h3.846v8.973h-3.846V405.407z   M231.299,238.758h-3.846v-8.973h3.846V238.758z M238.99,336.184h-3.846v-10.255h3.846V336.184z M238.99,259.269h-3.846v-10.255  h3.846V259.269z M246.682,356.695h-3.846v-10.255h3.846V356.695z M246.682,277.216h-3.846V266.96h3.846V277.216z M246.682,199.019  h-3.846v-8.973h3.846V199.019z M254.373,374.641h-3.846v-8.973h3.846V374.641z M254.373,296.445h-3.846v-10.255h3.846V296.445z   M254.373,219.53h-3.846v-10.255h3.846V219.53z M260.783,316.955h-5.128V306.7h5.128V316.955z M260.783,238.758h-5.128v-8.973h5.128  V238.758z M267.192,336.184h-3.846v-10.255h3.846V336.184z M267.192,259.269h-3.846v-10.255h3.846V259.269z M267.192,179.79h-3.846  v-10.255h3.846V179.79z M276.166,356.695h-5.128v-10.255h5.128V356.695z M276.166,277.216h-5.128V266.96h5.128V277.216z   M276.166,199.019h-5.128v-8.973h5.128V199.019z M283.857,374.641h-5.128v-8.973h5.128V374.641z M283.857,296.445h-5.128v-10.255  h5.128V296.445z M283.857,219.53h-5.128v-10.255h5.128V219.53z M283.857,140.051h-5.128v-8.973h5.128V140.051z M290.267,395.152  h-5.128v-8.973h5.128V395.152z M290.267,316.955h-5.128V306.7h5.128V316.955z M290.267,238.758h-5.128v-8.973h5.128V238.758z   M290.267,159.279h-5.128v-7.692h5.128V159.279z M296.676,414.381h-3.846v-8.973h3.846V414.381z M296.676,336.184h-3.846v-10.255  h3.846V336.184z M296.676,259.269h-3.846v-10.255h3.846V259.269z M296.676,179.79h-3.846v-10.255h3.846V179.79z M305.65,434.892  h-5.128v-8.973h5.128V434.892z M305.65,356.695h-5.128v-10.255h5.128V356.695z M305.65,277.216h-5.128V266.96h5.128V277.216z   M305.65,199.019h-5.128v-8.973h5.128V199.019z M305.65,120.822h-5.128v-8.973h5.128V120.822z M312.059,374.641h-5.128v-8.973h5.128  V374.641z M312.059,296.445h-5.128v-10.255h5.128V296.445z M312.059,219.53h-5.128v-10.255h5.128V219.53z M312.059,140.051h-5.128  v-8.973h5.128V140.051z M318.469,395.152h-5.128v-8.973h5.128V395.152z M318.469,316.955h-5.128V306.7h5.128V316.955z   M318.469,238.758h-5.128v-8.973h5.128V238.758z M318.469,159.279h-5.128v-7.692h5.128V159.279z M326.16,414.381h-5.128v-8.973  h5.128V414.381z M326.16,336.184h-5.128v-10.255h5.128V336.184z M326.16,259.269h-5.128v-10.255h5.128V259.269z M326.16,179.79  h-5.128v-10.255h5.128V179.79z M326.16,100.311h-5.128v-8.973h5.128V100.311z M333.852,434.892h-3.846v-8.973h3.846V434.892z   M333.852,356.695h-3.846v-10.255h3.846V356.695z M333.852,277.216h-3.846V266.96h3.846V277.216z M333.852,199.019h-3.846v-8.973  h3.846V199.019z M333.852,120.822h-3.846v-8.973h3.846V120.822z M341.543,454.12h-5.128v-8.973h5.128V454.12z M341.543,374.641  h-5.128v-8.973h5.128V374.641z M341.543,296.445h-5.128v-10.255h5.128V296.445z M341.543,219.53h-5.128v-10.255h5.128V219.53z   M341.543,140.051h-5.128v-8.973h5.128V140.051z M347.953,395.152h-3.846v-8.973h3.846V395.152z M347.953,316.955h-3.846V306.7  h3.846V316.955z M347.953,238.758h-3.846v-8.973h3.846V238.758z M347.953,159.279h-3.846v-7.692h3.846V159.279z M354.363,414.381  h-3.846v-8.973h3.846V414.381z M354.363,336.184h-3.846v-10.255h3.846V336.184z M354.363,259.269h-3.846v-10.255h3.846V259.269z   M354.363,179.79h-3.846v-10.255h3.846V179.79z M354.363,100.311h-3.846v-8.973h3.846V100.311z M363.336,434.892h-5.128v-8.973  h5.128V434.892z M363.336,356.695h-5.128v-10.255h5.128V356.695z M363.336,277.216h-5.128V266.96h5.128V277.216z M363.336,199.019  h-5.128v-8.973h5.128V199.019z M363.336,120.822h-5.128v-8.973h5.128V120.822z M369.746,454.12h-5.128v-8.973h5.128V454.12z   M369.746,374.641h-5.128v-8.973h5.128V374.641z M369.746,296.445h-5.128v-10.255h5.128V296.445z M369.746,219.53h-5.128v-10.255  h5.128V219.53z M369.746,140.051h-5.128v-8.973h5.128V140.051z M376.155,474.631h-3.846v-8.973h3.846V474.631z M376.155,395.152  h-3.846v-8.973h3.846V395.152z M376.155,316.955h-3.846V306.7h3.846V316.955z M376.155,238.758h-3.846v-8.973h3.846V238.758z   M376.155,159.279h-3.846v-7.692h3.846V159.279z M376.155,81.083h-3.846v-8.973h3.846V81.083z M383.847,414.381h-5.128v-8.973h5.128  V414.381z M383.847,336.184h-5.128v-10.255h5.128V336.184z M383.847,259.269h-5.128v-10.255h5.128V259.269z M383.847,179.79h-5.128  v-10.255h5.128V179.79z M383.847,100.311h-5.128v-8.973h5.128V100.311z M392.82,434.892h-5.128v-8.973h5.128V434.892z   M392.82,356.695h-5.128v-10.255h5.128V356.695z M392.82,277.216h-5.128V266.96h5.128V277.216z M392.82,199.019h-5.128v-8.973h5.128  V199.019z M392.82,120.822h-5.128v-8.973h5.128V120.822z M399.23,454.12h-5.128v-8.973h5.128V454.12z M399.23,374.641h-5.128v-8.973  h5.128V374.641z M399.23,296.445h-5.128v-10.255h5.128V296.445z M399.23,219.53h-5.128v-10.255h5.128V219.53z M399.23,140.051  h-5.128v-8.973h5.128V140.051z M405.639,474.631h-5.128v-8.973h5.128V474.631z M405.639,395.152h-5.128v-8.973h5.128V395.152z   M405.639,316.955h-5.128V306.7h5.128V316.955z M405.639,238.758h-5.128v-8.973h5.128V238.758z M405.639,159.279h-5.128v-7.692  h5.128V159.279z M405.639,81.083h-5.128v-8.973h5.128V81.083z M413.331,414.381h-5.128v-8.973h5.128V414.381z M413.331,336.184  h-5.128v-10.255h5.128V336.184z M413.331,259.269h-5.128v-10.255h5.128V259.269z M413.331,179.79h-5.128v-10.255h5.128V179.79z   M413.331,100.311h-5.128v-8.973h5.128V100.311z M421.022,434.892h-3.846v-8.973h3.846V434.892z M421.022,356.695h-3.846v-10.255  h3.846V356.695z M421.022,277.216h-3.846V266.96h3.846V277.216z M421.022,199.019h-3.846v-8.973h3.846V199.019z M421.022,120.822  h-3.846v-8.973h3.846V120.822z M428.714,454.12h-5.128v-8.973h5.128V454.12z M428.714,374.641h-5.128v-8.973h5.128V374.641z   M428.714,296.445h-5.128v-10.255h5.128V296.445z M428.714,219.53h-5.128v-10.255h5.128V219.53z M428.714,140.051h-5.128v-8.973  h5.128V140.051z M435.123,474.631h-5.128v-8.973h5.128V474.631z M435.123,395.152h-5.128v-8.973h5.128V395.152z M435.123,316.955  h-5.128V306.7h5.128V316.955z M435.123,238.758h-5.128v-8.973h5.128V238.758z M435.123,159.279h-5.128v-7.692h5.128V159.279z   M435.123,81.083h-5.128v-8.973h5.128V81.083z M441.533,414.381h-5.128v-8.973h5.128V414.381z M441.533,336.184h-5.128v-10.255  h5.128V336.184z M441.533,259.269h-5.128v-10.255h5.128V259.269z M441.533,179.79h-5.128v-10.255h5.128V179.79z M441.533,100.311  h-5.128v-8.973h5.128V100.311z M451.788,434.892h-5.128v-8.973h5.128V434.892z M451.788,356.695h-5.128v-10.255h5.128V356.695z   M451.788,277.216h-5.128V266.96h5.128V277.216z M451.788,199.019h-5.128v-8.973h5.128V199.019z M451.788,120.822h-5.128v-8.973  h5.128V120.822z M459.48,454.12h-5.128v-8.973h5.128V454.12z M459.48,374.641h-5.128v-8.973h5.128V374.641z M459.48,296.445h-5.128  v-10.255h5.128V296.445z M459.48,219.53h-5.128v-10.255h5.128V219.53z M459.48,140.051h-5.128v-8.973h5.128V140.051z M459.48,60.572  h-5.128v-8.973h5.128V60.572z M465.889,474.631h-5.128v-8.973h5.128V474.631z M465.889,395.152h-5.128v-8.973h5.128V395.152z   M465.889,316.955h-5.128V306.7h5.128V316.955z M465.889,238.758h-5.128v-8.973h5.128V238.758z M465.889,159.279h-5.128v-7.692  h5.128V159.279z M460.762,81.083v-8.973h5.128v8.973H460.762z"/>
<g>
	<polygon style="fill:#FFFFFF;" points="250.527,132.359 232.581,132.359 232.581,212.607 250.527,230.298  "/>
	<polygon style="fill:#FFFFFF;" points="217.198,132.359 199.251,132.359 199.251,179.79 217.198,197.481  "/>
	<polygon style="fill:#FFFFFF;" points="183.868,132.359 167.203,132.359 167.203,146.973 183.868,164.663  "/>
	<polygon style="fill:#FFFFFF;" points="314.623,132.359 297.958,132.359 297.958,278.241 314.623,295.291  "/>
	<polygon style="fill:#FFFFFF;" points="330.006,310.289 345.389,325.416 345.389,132.359 330.006,132.359  "/>
	<polygon style="fill:#FFFFFF;" points="282.575,132.359 264.628,132.359 264.628,245.424 282.575,263.115  "/>
</g>

        </g>
    </g>
</g>

<!-- ITEM 1 -->
<g>
    <defs>
        
        <clipPath id="clip-path-id-viewbox-item-1">
            <rect x="0.0" y="0.0" width="328.0" height="198.0"/>
        </clipPath>
    </defs>
    <g transform="translate(691.0 172.0) rotate(0.0 353.0 213.5) scale(2.152439024390244 2.1565656565656566)">
        <g clip-path="url(#clip-path-id-viewbox-item-1)" transform="translate(-0.0 -0.0)">

<rect x="0" y="0" fill="#EEEEEE" width="328" height="198"/>
<linearGradient id="SVGID_1_-i1" gradientUnits="userSpaceOnUse" x1="2.804" y1="17.9785" x2="323.629" y2="17.9785">
	<stop offset="0" style="stop-color:#B0CDFC"/>
	<stop offset="1" style="stop-color:#81AEF2"/>
</linearGradient>
<path fill="url(#SVGID_1_-i1)" d="M323.629,34.49H2.804V14.275c0-7.073,5.734-12.807,12.807-12.807h308.018V34.49z"/>
<path fill="#78A9EF" d="M40.639,38.084H5.712V17.771c0-7.019,5.69-12.709,12.709-12.709h22.218V38.084z"/>
<rect x="14.175" y="12.573" fill="#89B3F4" width="18" height="18"/>
<linearGradient id="SVGID_2_-i1" gradientUnits="userSpaceOnUse" x1="5.3333" y1="59" x2="64.8333" y2="59">
	<stop offset="0" style="stop-color:#EEEEEE"/>
	<stop offset="1" style="stop-color:#D6D7D8"/>
</linearGradient>
<rect x="5.333" y="52" fill="url(#SVGID_2_-i1)" width="59.5" height="14"/>
<rect x="59.167" y="52" fill="#F2F2F2" width="59.5" height="14"/>
<linearGradient id="SVGID_3_-i1" gradientUnits="userSpaceOnUse" x1="113" y1="59" x2="172.5" y2="59">
	<stop offset="0" style="stop-color:#EEEEEE"/>
	<stop offset="1" style="stop-color:#D6D7D8"/>
</linearGradient>
<rect x="113" y="52" fill="url(#SVGID_3_-i1)" width="59.5" height="14"/>
<rect x="166.833" y="52" fill="#F2F2F2" width="59.5" height="14"/>
<linearGradient id="SVGID_4_-i1" gradientUnits="userSpaceOnUse" x1="220.6667" y1="59" x2="280.1667" y2="59">
	<stop offset="0" style="stop-color:#EEEEEE"/>
	<stop offset="1" style="stop-color:#D6D7D8"/>
</linearGradient>
<rect x="220.667" y="52" fill="url(#SVGID_4_-i1)" width="59.5" height="14"/>
<rect x="263.5" y="52" fill="#F2F2F2" width="59.5" height="14"/>
<path fill="#F7F7F7" d="M296,45.333H63.333c-3.3,0-6-2.7-6-6v-2.667c0-3.3,2.7-6,6-6H296c3.3,0,6,2.7,6,6v2.667  C302,42.633,299.3,45.333,296,45.333z"/>
<circle fill="#23286B" cx="74.459" cy="41.238" r="1.5"/>
<circle fill="#23286B" cx="82.458" cy="41.238" r="1.5"/>
<circle fill="#23286B" cx="90.457" cy="41.238" r="1.5"/>

        </g>
    </g>
</g>

<!-- ITEM 2 -->
<g>
    <defs>
        
        <clipPath id="clip-path-id-viewbox-item-2">
            <rect x="0.0" y="0.0" width="65.482" height="56.031"/>
        </clipPath>
    </defs>
    <g transform="translate(751.0 359.0) rotate(0.0 108.0 93.0) scale(3.2986164136709326 3.319590940729239)">
        <g clip-path="url(#clip-path-id-viewbox-item-2)" transform="translate(-0.0 -0.0)">

<path fill="#9bbffd" d="M42.318,40.586h-1.184c7.877-3.027,13.478-10.644,13.478-19.588C54.612,9.402,45.211,0,33.613,0  S12.614,9.402,12.614,20.999c0,8.943,5.601,16.56,13.478,19.588h-2.928c-10.39,0-19.358,6.396-23.164,15.445h65.482  C61.676,46.983,52.708,40.586,42.318,40.586z"/>

        </g>
    </g>
</g>

<!-- ITEM 3 -->
<g>
    <defs>
        
        <clipPath id="clip-path-id-viewbox-item-3">
            <rect x="0.0" y="0.0" width="500.0" height="310.0"/>
        </clipPath>
    </defs>
    <g transform="translate(197.0 468.0) rotate(0.0 460.0 286.0) scale(1.84 1.8451612903225807)">
        <g clip-path="url(#clip-path-id-viewbox-item-3)" transform="translate(-0.0 -0.0)">

<linearGradient id="SVGID_1_-i3" gradientUnits="userSpaceOnUse" x1="1036.3484" y1="2853.4932" x2="1267.5829" y2="2853.4932" gradientTransform="matrix(0.1333 0 0 0.1333 -129.1383 -163.4508)">
	<stop offset="0" style="stop-color:#FFBEB6"/>
	<stop offset="1" style="stop-color:#F2A19C"/>
</linearGradient>
<path fill="url(#SVGID_1_-i3)" d="M19.581,218.902c7.996,0.841,12.555,0.725,20.249-1.9c-10.298,0.127-31.061-3.912-30.821-2.026  C9.426,218.271,16.68,218.597,19.581,218.902z"/>
<path fill="#FFBEB6" d="M58.752,225.304c-0.854-0.484-1.711-1.118-2.117-2.106c-0.485-1.181-0.213-2.568,0.074-3.831  c3.377-14.826,7.863-29.321,13.391-43.275c-1.477,0.104-2.955,0.207-4.431,0.31c-2.7,5.31-5.401,10.619-8.1,15.928  c-3.967,7.798-6.225,18.178-14.753,23.404c-12.468,3.468-24.096,5.331-36.856,6.876c-2.023,0.245-6.649,1.17-5.875,3.321  c1.405,0.804,2.07,1.445,4.04,1.004s14.027-1.698,16.567-1.462c2.056,0.191,4.109,0.205,6.16,0.094  c-0.492,0.185-0.983,0.369-1.475,0.564c-1.473,0.589-3.885,1.252-5.444,1.205c-1.358-0.041-3.398,0.368-4.742,0.603  s-3.336,2.97-0.697,3.042c9.586,0.261,19.218-0.866,28.46-3.787c2.075-0.656,4.27-1.397,6.338-0.719  c1.234,0.405,4.345,2.061,5.627,2.459c4.73,1.47,4.286,1.943,9.076,3.3c2.312,0.655,5.211,3.595,5.455,0.886  C69.848,228.722,63.641,228.072,58.752,225.304z"/>
<path fill="#1D72D8" d="M499.892,205.494c1.707-10.813-17.318,0.488-22.824,9.949c-4.157,7.142-6.603,15.128-9.007,23.035  c-0.466,1.533-0.934,3.075-1.106,4.668c-0.18,1.657-1.382,4.501-1.298,6.167c0.469,9.319,0.337,17.56-2.965,26.287  c8.779,0.469,18.048,2.035,26.776,3.095C490.975,270.813,498.449,214.633,499.892,205.494z"/>
<polygon fill="#EEEEEE" points="237.222,275.17 94.987,275.17 94.987,309.938 189.178,309.938 "/>
<path fill="#151A4F" d="M238.685,243.84c-8.595-7.306-15.767-16.896-17.827-27.987c-2.06-11.091,1.915-23.697,11.418-29.774  c4.772,5.945,14.339,5.527,20.878,1.609c6.539-3.918,11.063-10.369,16.313-15.897c13.95-14.688,33.18-22.951,51.843-30.829  c3.995-1.686,8.722-3.341,12.464-1.15c1.762,1.032,2.977,2.766,4.135,4.448c4.377,6.354,8.949,13.367,8.424,21.064  c-0.225,3.303-1.393,6.464-2.7,9.506c-12.09,28.121-36.254,48.925-59.63,68.688c-4.89,4.134-10.011,8.391-16.217,9.972  C257.49,256.116,246.783,250.723,238.685,243.84z"/>
<linearGradient id="SVGID_2_-i3" gradientUnits="userSpaceOnUse" x1="2262.658" y1="2945.8674" x2="4486.5518" y2="2945.8674" gradientTransform="matrix(0.1333 0 0 0.1333 -129.1383 -163.4508)">
	<stop offset="0" style="stop-color:#23286B"/>
	<stop offset="1" style="stop-color:#151A4F"/>
</linearGradient>
<path fill="url(#SVGID_2_-i3)" d="M250.716,218.982c14.834,3.031,29.667,6.064,44.501,9.095c8.349,1.706,16.859,3.422,25.333,2.523  c6.798-0.721,13.466-3.117,20.286-2.65c5.589,0.382,10.842,2.66,16.181,4.361c14.469,4.608,29.889,5.024,45.07,5.401  c19.833,0.493,45.969,0.987,65.804,1.479c2.444,12.14-1.414,24.279,1.03,36.419c-13.688,4.836-28.638,4.022-43.129,3.148  c-33.423-2.017-66.846-4.033-100.269-6.051c-28.906-1.743-58.18-3.556-85.718-12.513s-53.608-26.005-67.33-51.506  c17.788-12.472,37.302-22.478,57.811-29.644c8.745,6.462,13.444,17.985,11.715,28.72c-0.304,1.888-0.786,3.848-0.224,5.675  C242.863,216.968,247.101,218.243,250.716,218.982z"/>
<linearGradient id="SVGID_3_-i3" gradientUnits="userSpaceOnUse" x1="1660.2643" y1="2262.4143" x2="1739.2705" y2="2700.2" gradientTransform="matrix(0.1333 0 0 0.1333 -129.1383 -163.4508)">
	<stop offset="0" style="stop-color:#A1C3FC"/>
	<stop offset="1" style="stop-color:#78A9EF"/>
</linearGradient>
<path fill="url(#SVGID_3_-i3)" d="M141.285,74.322c-0.482-0.533-1.249-0.676-1.959-0.788c-3.166-0.5-6.331-1.001-9.497-1.501  c-3.023-0.478-6.379-0.888-8.915,0.824c-1.592,1.075-2.579,2.819-3.51,4.499c-16.99,30.677-27.036,59.088-32.461,68.886  c-9.501,17.156-19.848,25.564-29.348,42.719c-3.808,6.877-7.616,13.752-11.424,20.629c12.043,4.152,24.087,8.304,36.13,12.456  c4.49-19.01,5.511-26.169,10.002-45.178c1.344-5.691,21.307-42.574,23.966-45.473c6.317-6.888,18.138-23.962,22.635-32.155  c3.72-6.78,4.334-14.771,4.868-22.486C141.829,75.902,141.855,74.952,141.285,74.322z"/>
<path fill="#F2A19C" d="M163.994,72.403c1.096,5.719,0.753,11.708-0.989,17.263c6.972-0.224,13.944-0.448,20.916-0.672  c-2.778-4.567-2.588-10.275-2.325-15.614c0.023-0.461,0.033-0.965-0.251-1.328c-0.441-0.565-1.304-0.477-2.009-0.348  C174.285,72.637,169.107,72.872,163.994,72.403z"/>
<linearGradient id="SVGID_4_-i3" gradientUnits="userSpaceOnUse" x1="1955.725" y1="2373.3743" x2="2810.2581" y2="2373.3743" gradientTransform="matrix(0.1333 0 0 0.1333 -129.1383 -163.4508)">
	<stop offset="0" style="stop-color:#A1C3FC"/>
	<stop offset="1" style="stop-color:#78A9EF"/>
</linearGradient>
<path fill="url(#SVGID_4_-i3)" d="M207.438,137.527c1.047,7.964,2.805,16.11,7.464,22.652c7.865,11.047,22.537,15.593,30.567,26.52  c-19.129,19.578-43.754,32.679-67.956,45.467c-7.585-11.904-15.168-23.81-22.754-35.714c-2.675-4.199-5.354-8.405-7.631-12.832  c-3.3-6.418-5.729-13.249-7.811-20.158c-8.693-28.831-10.743-59.982-2.73-89.009c0.576-2.088,10.423,0.552,16.838,1.654  c1.91,0.327,9.059,2.18,10.621,3.326c1.609,1.18,1.609,1.824,3.862,3.219c5.707,3.533,9.102,1.855,13.947-2.789  c0.813-0.78,2.039-2.146,3.755-3.004c1.517-0.758,4.721-1.074,6.651-0.859c6.856,0.762,12.162,0.799,17.912,4.611  C205.88,99.216,204.949,118.594,207.438,137.527z"/>
<linearGradient id="SVGID_5_-i3" gradientUnits="userSpaceOnUse" x1="-6145.6587" y1="3286.9888" x2="-5519.2339" y2="3286.9888" gradientTransform="matrix(-0.1333 0 0 0.1333 -357.3899 -163.4508)">
	<stop offset="0" style="stop-color:#428DFC"/>
	<stop offset="1" style="stop-color:#1D72D8"/>
</linearGradient>
<path fill="url(#SVGID_5_-i3)" d="M460.448,288.258c6.744-0.35-10.209-16.961-20.363-21.051c-7.665-3.087-15.919-4.362-24.09-5.605  c-1.583-0.241-3.178-0.482-4.778-0.424c-1.666,0.061-4.653-0.721-6.29-0.4c-9.155,1.802-17.33,2.857-26.44,0.841  c0.797,8.755,0.577,18.153,0.783,26.942C387.285,288.922,454.988,288.543,460.448,288.258z"/>
<path fill="#FFBEB6" d="M188.636,63.1c1.091-6.434,1.104-13.82-3.391-18.549c-4.518-4.752-11.896-5.089-18.439-4.66  c-1.426,0.094-2.869,0.212-4.221,0.677c-1.499,0.516-2.83,1.443-3.997,2.517c-4.539,4.178-6.636,10.691-5.919,16.818  c0.717,6.128,4.08,11.801,8.764,15.815c4.762,4.08,11.65,6.519,17.372,3.956C184.919,76.935,187.516,69.704,188.636,63.1z"/>
<g>
	<path fill="#23286B" d="M182.869,69.187c-2.165,0-4.2-0.713-5.725-2.034c-0.179-0.155-0.197-0.425-0.044-0.603   c0.155-0.179,0.426-0.197,0.603-0.044c1.65,1.428,3.978,2.064,6.384,1.743c2.407-0.32,4.486-1.543,5.704-3.354   c0.132-0.196,0.397-0.25,0.594-0.116c0.196,0.132,0.248,0.397,0.116,0.594c-1.355,2.014-3.651,3.371-6.301,3.725   C183.754,69.157,183.308,69.187,182.869,69.187z"/>
</g>
<g>
	<path fill="#23286B" d="M159.457,69.064c-0.102,0-0.202-0.001-0.304-0.004c-2.704-0.076-5.221-1.163-6.905-2.982   c-0.161-0.174-0.15-0.444,0.023-0.605c0.173-0.162,0.444-0.15,0.605,0.023c1.529,1.651,3.826,2.638,6.302,2.708   c2.475,0.073,4.825-0.786,6.444-2.347c0.171-0.164,0.441-0.159,0.605,0.011c0.165,0.17,0.159,0.441-0.011,0.605   C164.498,68.129,162.049,69.064,159.457,69.064z"/>
</g>
<path fill="#E94A47" d="M159.187,33.415c-3.399,3.213-6.495,6.096-7.798,10.999c-2.605,9.808,2.108,18.422,2.108,18.422  s2.092-4.945,3.251-6.015c2.113-1.951,3.667-1.384,4.065-1.587c0.91-0.464,1.883,0.339,2.706,1.008  c4.404,3.587,10.27,4.203,15.093,1.581c2.226-1.21,4.556-3.104,6.88-2.224c1.726,0.653,2.955,2.196,3.606,5.284  c0.714-0.556,1.765-3.611,1.71-4.658c-0.466-8.714-2.978-17.243-7.146-24.263c-1.026-1.727-2.168-3.386-3.611-4.563  c-3.018-2.463-4.275-2.724-7.695-1.303C168.932,27.52,162.06,30.698,159.187,33.415z"/>
<path fill="#E94A47" d="M192.646,5.593c5.386-2.901,11.893-4.741,17.594-2.525c3.388,1.317,6.094,3.912,8.704,6.442  c1.565,1.518,3.203,3.164,3.672,5.293c0.293,1.329,0.095,2.709,0.062,4.07c-0.078,3.367-0.346,5.406,1.533,8.203  c0.711,0.784,3.039,2.783,4.356,3.354c-4.896,2.205-10.587,1.868-15.793,0.559c-5.207-1.309-10.141-3.528-15.294-5.035  c-6.665-1.95-13.615-2.689-20.521-3.419C179.543,15.092,185.711,9.328,192.646,5.593z"/>
<g>
	<path fill="#E94A47" d="M176.713,25.84c-0.004,0-0.008,0-0.013,0c-0.236-0.007-0.423-0.203-0.416-0.439   c0.214-7.553,3.857-14.892,9.743-19.631c5.886-4.738,13.831-6.732,21.257-5.33c0.232,0.044,0.385,0.267,0.341,0.499   c-0.044,0.232-0.267,0.384-0.499,0.341c-7.183-1.354-14.869,0.572-20.561,5.156c-5.693,4.584-9.216,11.682-9.425,18.989   C177.133,25.656,176.944,25.84,176.713,25.84z"/>
</g>
<rect x="173.899" y="18.682" fill="#23286B" width="8.537" height="8.537"/>
<linearGradient id="SVGID_6_-i3" gradientUnits="userSpaceOnUse" x1="3804.8054" y1="3066.4988" x2="3595.7878" y2="2436.0596" gradientTransform="matrix(0.1333 0 0 0.1333 -129.1383 -163.4508)">
	<stop offset="0" style="stop-color:#23286B"/>
	<stop offset="1" style="stop-color:#151A4F"/>
</linearGradient>
<path fill="url(#SVGID_6_-i3)" d="M322.865,173.155c-1.361-3.717-4.094-6.784-5.649-10.423c-2.455-5.747-1.612-12.773,2.133-17.776  c4.124-5.509,12.881-8.018,18.036-3.458c2.519,2.228,3.677,5.57,4.89,8.707c3.995,10.329,9.608,19.942,15.195,29.505  c17.99,30.793,36.929,61.143,65.459,82.543c-12.507,1.443-28.697,3.936-39.924,4.329c-6.203,0.218-6.168,1.342-12.171-0.234  c-6.004-1.576-11.768-5.218-14.409-10.835c-4.141-8.807,0.126-20.274-5.283-28.362c-2.669-3.989-7.163-6.268-11.263-8.766  c-7.67-4.674-14.969-11.393-16.514-20.242C321.923,189.878,325.752,181.035,322.865,173.155z"/>
<g>
	<path fill="#EEEEEE" d="M138.004,185.499l-0.843-0.126c2.379-33.087,1.608-67.728,0.864-101.228   c-0.079-3.556-0.159-7.098-0.233-10.623c-0.005-0.236,0.182-0.432,0.418-0.437c0.003,0,0.006,0,0.009,0   c0.232,0,0.423,0.186,0.428,0.418c0.074,3.525,0.154,7.067,0.232,10.623c0.713,32.063,1.449,65.17-0.572,96.979   c3.445-11.19,10.075-22.288,16.511-33.059c3.859-6.457,7.503-12.558,10.46-18.611c4.212-8.624,7.481-17.888,10.643-26.846   c3.17-8.98,6.447-18.268,10.681-26.935c0.104-0.212,0.361-0.3,0.571-0.196c0.212,0.104,0.3,0.359,0.196,0.571   c-4.212,8.624-7.481,17.888-10.643,26.846c-3.17,8.98-6.447,18.268-10.681,26.935c-2.971,6.085-6.626,12.2-10.494,18.674   C148.346,160.546,140.893,173.019,138.004,185.499z"/>
</g>
<rect x="130.399" y="183.443" transform="matrix(0.9428 0.3333 -0.3333 0.9428 76.3023 -35.4799)" fill="#EEEEEE" width="22.313" height="42.395"/>
<path fill="#FFBEB6" d="M203.58,276.932c1.215-7.008,0.206-5.983,1.764-12.514c0.986,1.175,2.32,2.244,4.237,1.323  c0.945-1.572,1.393-3.438,1.268-5.267c1.592,0.675,3.386,1.862,5.063-0.024c2.264-2.55,5.248-4.436,4.744-7.809  c-0.503-3.372-2.561-6.27-4.026-9.349c-4.523-9.502-3.362-20.565-3.58-31.086c-0.219-10.521-2.735-22.317-11.628-27.944  c0.306,15.033,0.613,30.066,0.919,45.099c0.093,4.529,0.181,9.102-0.72,13.542c-0.531,2.618-1.399,5.158-1.923,7.777  c-0.666,3.329-0.768,6.743-0.866,10.136c-0.285,9.765-0.536,18.111-0.821,27.876c0.206,3.094,3.094,3.714,3.805,0.939  C202.174,288.232,203.333,278.353,203.58,276.932z"/>
<linearGradient id="SVGID_7_-i3" gradientUnits="userSpaceOnUse" x1="2550.7827" y1="2466.1592" x2="2823.5491" y2="1734.5195" gradientTransform="matrix(0.1333 0 0 0.1333 -129.1383 -163.4508)">
	<stop offset="0" style="stop-color:#A1C3FC"/>
	<stop offset="1" style="stop-color:#78A9EF"/>
</linearGradient>
<path fill="url(#SVGID_7_-i3)" d="M192.261,93.601c3.574-5.376,7.15-10.751,10.725-16.128c5.606,1.208,9.912,3.519,11.817,9.156  c1.904,5.637,1.73,15.24,1.363,21.181c-0.77,12.443-3.095,24.753-3.802,37.2c-0.602,10.606-0.024,21.24,0.552,31.848  c0.214,3.95,0.431,7.91,1.096,11.81c0.745,4.373,2.047,8.632,3.445,12.841c3.892,11.714,8.562,23.168,13.967,34.261  c-12.224,1.252-24.448,2.504-36.672,3.756c0.796-13.26,1.592-26.52,2.388-39.779c1.706-28.424,3.216-58.056-7.96-84.231  c-0.987-2.313-2.083-4.632-2.374-7.13C186.186,103.048,189.288,98.07,192.261,93.601z"/>
<rect x="136.167" y="179.648" fill="#23286B" width="4.455" height="4.455"/>
<g>
	<path fill="#E94A47" d="M152.993,87.329l-0.633-0.573c2.029-2.241,1.953-5.634,1.569-8.968c-0.375-3.257-0.801-6.948,1.142-9.768   c0.388-0.564,0.86-1.07,1.317-1.56c0.779-0.836,1.513-1.624,1.805-2.628c0.157-0.536,0.175-1.108,0.196-1.713   c0.008-0.235,0.016-0.47,0.032-0.703c0.196-2.877,1.676-5.646,3.961-7.407l0.521,0.677c-2.093,1.613-3.449,4.151-3.628,6.788   c-0.015,0.224-0.023,0.448-0.03,0.673c-0.021,0.631-0.043,1.284-0.229,1.924c-0.349,1.199-1.188,2.1-2.001,2.971   c-0.435,0.468-0.886,0.95-1.239,1.463c-1.76,2.556-1.354,6.078-0.996,9.186C155.185,81.223,155.251,84.837,152.993,87.329z"/>
</g>
<rect x="208.942" y="277.926" transform="matrix(-0.8906 -0.4548 0.4548 -0.8906 272.1139 626.1717)" fill="#FFFFFF" width="4.86" height="4.86"/>
<rect x="187.075" y="279.165" transform="matrix(-0.8906 -0.4548 0.4548 -0.8906 230.2087 618.569)" fill="#FFFFFF" width="4.86" height="4.86"/>
<rect x="193.555" y="292.197" transform="matrix(-0.8327 0.5538 -0.5538 -0.8327 523.8317 432.2237)" fill="#FFFFFF" width="6.116" height="6.116"/>
<rect x="89.544" y="239.137" fill="#D6D7D8" width="99.881" height="70.801"/>
<rect x="132.42" y="268.267" transform="matrix(-0.8906 -0.4548 0.4548 -0.8906 135.3059 578.7788)" fill="#A1C3FC" width="9.695" height="9.695"/>
<path id="texture_17_-i3" fill="#FFFFFF" d="M136.784,81.547c-0.168,0.054-0.269,0.198-0.216,0.366l0,0  c0.054,0.168,0.198,0.269,0.366,0.216l0,0c0.168-0.054,0.269-0.198,0.216-0.366l0,0C137.096,81.595,136.952,81.493,136.784,81.547  L136.784,81.547z M110.131,94.228c-0.143-0.102-0.311-0.048-0.413,0.097c-0.102,0.143-0.048,0.311,0.097,0.413l0,0  c0.143,0.102,0.311,0.048,0.413-0.097C110.407,94.509,110.275,94.33,110.131,94.228L110.131,94.228L110.131,94.228z M116.764,97.791  c-0.143-0.102-0.311-0.048-0.413,0.097c-0.102,0.144-0.048,0.311,0.097,0.413l0,0c0.143,0.102,0.311,0.048,0.413-0.097l0,0  C116.95,98.139,116.907,97.893,116.764,97.791L116.764,97.791z M122.811,84.281c-0.102,0.143-0.126,0.3-0.071,0.468  c0.143,0.102,0.3,0.126,0.468,0.071c0.102-0.143,0.126-0.3,0.059-0.39C123.147,84.173,122.991,84.149,122.811,84.281z   M127.572,90.19c-0.102,0.143-0.126,0.3-0.071,0.468c0.143,0.102,0.3,0.126,0.468,0.071c0.102-0.143,0.126-0.3,0.059-0.39  C127.907,90.081,127.674,90.046,127.572,90.19L127.572,90.19z M109.017,109.368c-0.156-0.024-0.335,0.109-0.359,0.264  c-0.024,0.156,0.109,0.335,0.264,0.359l0,0c0.156,0.024,0.335-0.109,0.359-0.264l0,0  C109.305,109.571,109.174,109.392,109.017,109.368z M116.546,110.197c-0.156-0.024-0.335,0.109-0.359,0.264  c-0.024,0.156,0.109,0.335,0.264,0.359c0.156,0.024,0.335-0.109,0.359-0.264l0,0C116.834,110.402,116.702,110.222,116.546,110.197  L116.546,110.197L116.546,110.197z M128.673,79.832c-0.089,0.066-0.203,0.289-0.059,0.39c0.066,0.089,0.289,0.203,0.39,0.059  c0.089-0.066,0.203-0.289,0.059-0.39l0,0C129.008,79.725,128.853,79.7,128.673,79.832L128.673,79.832z M132.444,85.431  c-0.089,0.066-0.203,0.289-0.059,0.39c0.066,0.089,0.21,0.191,0.39,0.059c0.089-0.066,0.191-0.21,0.059-0.39l0,0  C132.689,85.389,132.534,85.366,132.444,85.431L132.444,85.431L132.444,85.431z M113.067,103.208  c-0.156-0.024-0.323,0.031-0.348,0.186s0.042,0.245,0.186,0.348l0,0c0.156,0.024,0.323-0.03,0.348-0.186l0,0  C113.277,103.4,113.223,103.232,113.067,103.208L113.067,103.208z M119.644,104.53c-0.156-0.024-0.323,0.031-0.348,0.186  s0.042,0.245,0.186,0.348l0,0c0.156,0.024,0.323-0.03,0.348-0.186l0,0C119.854,104.722,119.799,104.554,119.644,104.53  L119.644,104.53z M121.808,91.384c-0.143-0.102-0.311-0.048-0.413,0.097c-0.102,0.143-0.048,0.311,0.097,0.413  c0.144,0.102,0.311,0.048,0.413-0.097C122.006,91.653,121.951,91.485,121.808,91.384L121.808,91.384z M122.293,76.706  c-0.143-0.102-0.311-0.048-0.413,0.097c-0.102,0.144-0.048,0.311,0.097,0.413c0.143,0.102,0.311,0.048,0.413-0.097  C122.49,76.976,122.436,76.808,122.293,76.706L122.293,76.706z M128.729,81.037c-0.143-0.102-0.311-0.048-0.413,0.097  c-0.102,0.143-0.048,0.311,0.097,0.413c0.143,0.102,0.311,0.048,0.413-0.097C128.926,81.306,128.872,81.139,128.729,81.037  L128.729,81.037z M135.255,85.302c-0.143-0.102-0.311-0.048-0.413,0.097c-0.102,0.143-0.048,0.311,0.097,0.413  c0.143,0.102,0.311,0.048,0.413-0.097C135.375,85.56,135.321,85.392,135.255,85.302z M115.735,108.718  c-0.168,0.054-0.269,0.198-0.216,0.366c0.054,0.168,0.198,0.269,0.366,0.216c0.168-0.054,0.269-0.198,0.216-0.366  C116.125,108.778,115.903,108.664,115.735,108.718L115.735,108.718z M145.054,80.657c-0.132-0.18-0.289-0.203-0.468-0.071   M119.525,92.233c-0.156-0.024-0.335,0.109-0.359,0.264c-0.024,0.156,0.109,0.335,0.264,0.359c0.156,0.024,0.335-0.109,0.359-0.264  l0,0C119.814,92.435,119.681,92.256,119.525,92.233L119.525,92.233L119.525,92.233z M119.219,86.923  c-0.156-0.024-0.335,0.109-0.359,0.264c-0.024,0.156,0.109,0.335,0.264,0.359c0.156,0.024,0.323-0.03,0.359-0.264  C119.508,87.126,119.374,86.946,119.219,86.923L119.219,86.923z M126.761,88.711c-0.156-0.024-0.335,0.109-0.359,0.264  c-0.024,0.156,0.03,0.323,0.264,0.359c0.156,0.024,0.335-0.109,0.437-0.252C127.048,88.914,126.917,88.735,126.761,88.711  L126.761,88.711z M136.109,78.654c-0.143-0.102-0.311-0.048-0.413,0.097l0,0c-0.102,0.143-0.048,0.311,0.084,0.492  c0.143,0.102,0.311,0.048,0.492-0.084C136.307,78.924,136.254,78.755,136.109,78.654L136.109,78.654z M137.007,81.661  c-0.156-0.024-0.245,0.042-0.335,0.109c-0.024,0.156,0.042,0.245,0.109,0.335c0.156,0.024,0.245-0.042,0.335-0.109l0,0  C137.138,81.841,137.084,81.673,137.007,81.661L137.007,81.661L137.007,81.661z"/>

        </g>
    </g>
</g>

<!-- ITEM 4 -->
<g>
    <defs>
        
        <clipPath id="clip-path-id-viewbox-item-4">
            <rect x="0.0" y="0.0" width="15.2" height="71.8"/>
        </clipPath>
    </defs>
    <g transform="translate(1149.0 258.0) rotate(90.0 31.5 141.5) scale(4.144736842105264 3.9415041782729805)">
        <g clip-path="url(#clip-path-id-viewbox-item-4)" transform="translate(-0.0 -0.0)">


<g>
	<rect width="15.2" height="71.8" style="fill:#D6D7D8;"/>
</g>

        </g>
    </g>
</g>

<!-- ITEM 5 -->
<g>
    <defs>
        
        <clipPath id="clip-path-id-viewbox-item-5">
            <rect x="0.0" y="0.0" width="15.2" height="71.8"/>
        </clipPath>
    </defs>
    <g transform="translate(1132.0 364.0) rotate(90.0 26.5 118.5) scale(3.486842105263158 3.3008356545961006)">
        <g clip-path="url(#clip-path-id-viewbox-item-5)" transform="translate(-0.0 -0.0)">


<g>
	<rect width="15.2" height="71.8" style="fill:#D6D7D8;"/>
</g>

        </g>
    </g>
</g>

              </svg>